<svg xmlns="http://www.w3.org/2000/svg" viewBox="0 0 32 32">
  <path fill="#ffffff" d="M16.04 3.2c-7.03 0-12.75 5.62-12.75 12.54 0 2.2.59 4.35 1.7 6.25L3.2 28.8l7.02-1.8a12.9 12.9 0 0 0 5.82 1.38c7.03 0 12.76-5.62 12.76-12.54S23.07 3.2 16.04 3.2Zm0 22.99c-1.8 0-3.56-.47-5.1-1.36l-.37-.22-4.17 1.07 1.1-4.02-.24-.39a10.19 10.19 0 0 1-1.58-5.43c0-5.7 4.65-10.34 10.36-10.34 5.72 0 10.37 4.64 10.37 10.34 0 5.7-4.65 10.35-10.37 10.35Zm5.68-7.75c-.31-.15-1.84-.9-2.12-1-.29-.1-.5-.15-.7.15-.21.31-.81 1-.99 1.2-.18.2-.36.23-.67.08-.31-.15-1.31-.48-2.49-1.52-.92-.82-1.54-1.83-1.72-2.14-.18-.31-.02-.48.14-.63.14-.14.31-.36.46-.54.15-.18.2-.31.31-.52.1-.2.05-.39-.03-.54-.08-.15-.7-1.68-.96-2.3-.25-.6-.51-.52-.7-.53h-.6c-.2 0-.54.08-.82.39-.28.31-1.08 1.05-1.08 2.56s1.1 2.97 1.25 3.17c.15.2 2.16 3.26 5.23 4.57.73.31 1.3.5 1.74.64.73.23 1.4.2 1.93.12.59-.09 1.84-.75 2.1-1.47.26-.72.26-1.34.18-1.47-.08-.13-.28-.2-.59-.36Z"/>
</svg>
